PathFileType	4	(X/Y/Z)	C:\Users\WrightLab\Desktop\Jo\P2_Trial36.trc
DataRate	CameraRate	NumFrames	NumMarkers	Units	OrigDataRate	OrigDataStartFrame	OrigNumFrames
100.00	100.00	       81	19	mm	100.00	561	       641
Frame#	Time	Headset_Front			Headset_Back			Headset_Left			Headset_Right			Left_Shoulder			Right_Shoulder			Sternum			C7			Left Elbow			Right Elbow			Left Wrist			Right Wrist			Left ASIS			Right ASIS			S2			Left Knee			Right Knee			Left Ankle			Right Ankle			
		X1	Y1	Z1	X2	Y2	Z2	X3	Y3	Z3	X4	Y4	Z4	X5	Y5	Z5	X6	Y6	Z6	X7	Y7	Z7	X8	Y8	Z8	X9	Y9	Z9	X10	Y10	Z10	X11	Y11	Z11	X12	Y12	Z12	X13	Y13	Z13	X14	Y14	Z14	X15	Y15	Z15	X16	Y16	Z16	X17	Y17	Z17	X18	Y18	Z18	X19	Y19	Z19	

561	5.600													-196.83429	1512.32019	2470.95898																-187.47754	1240.17615	2579.86206	-618.23560	1003.28851	2375.76587																						
562	5.610													-198.10521	1511.88818	2478.35522																-191.97609	1239.53333	2587.74341	-616.15601	1005.03729	2378.53125																						
563	5.620													-199.58311	1511.82202	2486.66553																-196.41393	1239.05823	2595.78687	-615.05664	1006.98883	2382.50464																						
564	5.630													-201.37872	1511.59167	2493.93677																-200.29140	1239.14478	2603.16431	-613.16681	1008.26520	2385.05469																						
565	5.640													-202.92464	1511.61523	2501.58398																-204.69284	1238.88538	2610.88110	-610.18524	1008.77338	2386.38159																						
566	5.650													-204.00027	1511.85315	2509.24390																-208.59174	1238.58923	2617.54834	-607.93347	1009.40814	2388.17725																						
567	5.660													-205.45268	1512.01453	2516.37964																-212.56427	1238.94946	2625.61523	-604.57446	1009.77417	2389.21313																						
568	5.670													-206.90013	1512.07434	2523.28662																-215.62265	1239.76196	2632.55322	-601.55695	1009.54956	2390.08447																						
569	5.680																															-219.19630	1240.16675	2639.73975	-597.57642	1009.09985	2390.01099																						
570	5.690																															-222.86197	1240.77136	2646.99146	-593.86591	1008.46088	2390.49512																						
571	5.700																															-225.87389	1242.14893	2655.01172																									
572	5.710																															-228.91249	1242.43054	2661.66406																									
573	5.720																															-231.39645	1243.44861	2668.28613																									
574	5.730																																																										
575	5.740																																																										
576	5.750																																																										
577	5.760																																																										
578	5.770																																																										
579	5.780																																																										
580	5.790																																																										
581	5.800																																																										
582	5.810																																																										
583	5.820																																																										
584	5.830																																																										
585	5.840																																																										
586	5.850																																																										
587	5.860																																																										
588	5.870																																																										
589	5.880																																																										
590	5.890																																																										
591	5.900																																																										
592	5.910																																																										
593	5.920																																																										
594	5.930																																																										
595	5.940																																																										
596	5.950																																																										
597	5.960																																																										
598	5.970																																																										
599	5.980																																																										
600	5.990																																																										
601	6.000																																																										
602	6.010																																																										
603	6.020																																																										
604	6.030																																																										
605	6.040																																																										
606	6.050																																																										
607	6.060																																																										
608	6.070																																																										
609	6.080																																																										
610	6.090																																																										
611	6.100																																																										
612	6.110																																																										
613	6.120																																																										
614	6.130																																																										
615	6.140																																																										
616	6.150																																																										
617	6.160																																																										
618	6.170																																																										
619	6.180																																																										
620	6.190																																																										
621	6.200																																																										
622	6.210																																																										
623	6.220																																																										
624	6.230																																																										
625	6.240																																																										
626	6.250																																																										
627	6.260																																																										
628	6.270																																																										
629	6.280																																																										
630	6.290																																																										
631	6.300																																																										
632	6.310																																																										
633	6.320																																																										
634	6.330																																																										
635	6.340																																																										
636	6.350																																																										
637	6.360																																																										
638	6.370																																																										
639	6.380																																																										
640	6.390																																																										
641	6.400																																																										
